<svg viewBox="0 0 2000 1400" xmlns="http://www.w3.org/2000/svg"><mask id="b" x="0" y="0" width="2000" height="1400"><path fill="url(#a)" d="M0 0h2000v1400H0z"/></mask><path fill="#F6F6F6" d="M0 0h2000v1400H0z"/><g style="transform-origin:center center" clip-rule="evenodd" stroke="#08ffc8" stroke-width=".6" mask="url(#b)"><g fill="none"><path d="M83.5 48.675v96.303l83.496 48.156V96.83L83.5 48.675ZM166.996 193.134l83.504-48.156V48.675L166.996 96.83v96.304Z" stroke-width=".33400199999999997"/><path d="M83.5 48.675 166.996.527 250.5 48.675 166.996 96.83 83.5 48.675Z" stroke-width=".33400199999999997"/></g><g fill="none"><path d="M417.5 48.675v96.303l83.496 48.156V96.83L417.5 48.675ZM500.996 193.134l83.504-48.156V48.675L500.996 96.83v96.304Z" stroke-width=".33400199999999997"/><path d="M417.5 48.675 500.996.527 584.5 48.675 500.996 96.83 417.5 48.675Z" stroke-width=".33400199999999997"/></g><g fill-rule="evenodd"><path d="M918.5 48.675v96.303l83.496 48.156V96.83L918.5 48.675Z" fill="#08ffc8b8" stroke-width=".33400199999999997"/><path d="m1001.996 193.134 83.504-48.156V48.675l-83.504 48.155v96.304Z" fill="#08ffc881" stroke-width=".33400199999999997"/><path d="M918.5 48.675 1001.996.527l83.504 48.148-83.504 48.155L918.5 48.675Z" fill="#08ffc840" stroke-width=".33400199999999997"/></g><g fill="none"><path d="M1252.5 48.675v96.303l83.496 48.156V96.83L1252.5 48.675ZM1335.996 193.134l83.504-48.156V48.675l-83.504 48.155v96.304Z" stroke-width=".33400199999999997"/><path d="M1252.5 48.675 1335.996.527l83.504 48.148-83.504 48.155-83.496-48.155Z" stroke-width=".33400199999999997"/></g><g fill-rule="evenodd"><path d="M1419.5 48.675v96.303l83.496 48.156V96.83L1419.5 48.675Z" fill="#08ffc866" stroke-width=".33400199999999997"/><path d="m1502.996 193.134 83.504-48.156V48.675l-83.504 48.155v96.304Z" fill="#08ffc847" stroke-width=".33400199999999997"/><path d="M1419.5 48.675 1502.996.527l83.504 48.148-83.504 48.155-83.496-48.155Z" fill="#08ffc824" stroke-width=".33400199999999997"/></g><g fill="none"><path d="M1920.5 48.675v96.303l83.496 48.156V96.83L1920.5 48.675ZM2003.996 193.134l83.504-48.156V48.675l-83.504 48.155v96.304Z" stroke-width=".33400199999999997"/><path d="M1920.5 48.675 2003.996.527l83.504 48.148-83.504 48.155-83.496-48.155Z" stroke-width=".33400199999999997"/></g><g fill="none"><path d="M1085.5 338.141v96.304l83.496 48.155v-96.303l-83.496-48.156ZM1168.996 482.6l83.504-48.155V338.14l-83.504 48.156V482.6Z" stroke-width=".33400199999999997"/><path d="m1085.5 338.141 83.496-48.147 83.504 48.147-83.504 48.156-83.496-48.156Z" stroke-width=".33400199999999997"/></g><g fill-rule="evenodd"><path d="M167 482.875v96.303l83.496 48.156V531.03L167 482.875Z" fill="#08ffc8db" stroke-width=".33400199999999997"/><path d="M250.496 627.334 334 579.178v-96.303l-83.504 48.155v96.304Z" fill="#08ffc899" stroke-width=".33400199999999997"/><path d="m167 482.875 83.496-48.148L334 482.875l-83.504 48.155L167 482.875Z" fill="#08ffc84c" stroke-width=".33400199999999997"/></g><g fill-rule="evenodd"><path d="M1169 482.875v96.303l83.496 48.156V531.03L1169 482.875Z" fill="#08ffc8af" stroke-width=".33400199999999997"/><path d="M1252.496 627.334 1336 579.178v-96.303l-83.504 48.155v96.304Z" fill="#08ffc87b" stroke-width=".33400199999999997"/><path d="m1169 482.875 83.496-48.148L1336 482.875l-83.504 48.155L1169 482.875Z" fill="#08ffc83d" stroke-width=".33400199999999997"/></g><g fill="none"><path d="M1503 482.875v96.303l83.496 48.156V531.03L1503 482.875ZM1586.496 627.334 1670 579.178v-96.303l-83.504 48.155v96.304Z" stroke-width=".33400199999999997"/><path d="m1503 482.875 83.496-48.148L1670 482.875l-83.504 48.155L1503 482.875Z" stroke-width=".33400199999999997"/></g><g fill-rule="evenodd"><path d="M1670 482.875v96.303l83.496 48.156V531.03L1670 482.875Z" fill="#08ffc831" stroke-width=".33400199999999997"/><path d="M1753.496 627.334 1837 579.178v-96.303l-83.504 48.155v96.304Z" fill="#08ffc822" stroke-width=".33400199999999997"/><path d="m1670 482.875 83.496-48.148L1837 482.875l-83.504 48.155L1670 482.875Z" fill="#08ffc811" stroke-width=".33400199999999997"/></g><g fill="none"><path d="M250.5 627.608v96.304l83.496 48.155v-96.303L250.5 627.608ZM333.996 772.067l83.504-48.155v-96.304l-83.504 48.156v96.303Z" stroke-width=".33400199999999997"/><path d="m250.5 627.608 83.496-48.147 83.504 48.147-83.504 48.156-83.496-48.156Z" stroke-width=".33400199999999997"/></g><g fill="none"><path d="M584.5 627.608v96.304l83.496 48.155v-96.303L584.5 627.608ZM667.996 772.067l83.504-48.155v-96.304l-83.504 48.156v96.303Z" stroke-width=".33400199999999997"/><path d="m584.5 627.608 83.496-48.147 83.504 48.147-83.504 48.156-83.496-48.156Z" stroke-width=".33400199999999997"/></g><g fill="none"><path d="M751.5 627.608v96.304l83.496 48.155v-96.303L751.5 627.608ZM834.996 772.067l83.504-48.155v-96.304l-83.504 48.156v96.303Z" stroke-width=".33400199999999997"/><path d="m751.5 627.608 83.496-48.147 83.504 48.147-83.504 48.156-83.496-48.156Z" stroke-width=".33400199999999997"/></g><g fill="none"><path d="M1085.5 627.608v96.304l83.496 48.155v-96.303l-83.496-48.156ZM1168.996 772.067l83.504-48.155v-96.304l-83.504 48.156v96.303Z" stroke-width=".33400199999999997"/><path d="m1085.5 627.608 83.496-48.147 83.504 48.147-83.504 48.156-83.496-48.156Z" stroke-width=".33400199999999997"/></g><g fill-rule="evenodd"><path d="M1252.5 627.608v96.304l83.496 48.155v-96.303l-83.496-48.156Z" fill="#08ffc833" stroke-width=".33400199999999997"/><path d="m1335.996 772.067 83.504-48.155v-96.304l-83.504 48.156v96.303Z" fill="#08ffc824" stroke-width=".33400199999999997"/><path d="m1252.5 627.608 83.496-48.147 83.504 48.147-83.504 48.156-83.496-48.156Z" fill="#08ffc812" stroke-width=".33400199999999997"/></g><g fill="none"><path d="M1419.5 627.608v96.304l83.496 48.155v-96.303l-83.496-48.156ZM1502.996 772.067l83.504-48.155v-96.304l-83.504 48.156v96.303Z" stroke-width=".33400199999999997"/><path d="m1419.5 627.608 83.496-48.147 83.504 48.147-83.504 48.156-83.496-48.156Z" stroke-width=".33400199999999997"/></g><g fill="none"><path d="M1586.5 627.608v96.304l83.496 48.155v-96.303l-83.496-48.156ZM1669.996 772.067l83.504-48.155v-96.304l-83.504 48.156v96.303Z" stroke-width=".33400199999999997"/><path d="m1586.5 627.608 83.496-48.147 83.504 48.147-83.504 48.156-83.496-48.156Z" stroke-width=".33400199999999997"/></g><g fill="none"><path d="M1753.5 627.608v96.304l83.496 48.155v-96.303l-83.496-48.156ZM1836.996 772.067l83.504-48.155v-96.304l-83.504 48.156v96.303Z" stroke-width=".33400199999999997"/><path d="m1753.5 627.608 83.496-48.147 83.504 48.147-83.504 48.156-83.496-48.156Z" stroke-width=".33400199999999997"/></g><g fill-rule="evenodd"><path d="M334 772.341v96.304l83.496 48.155v-96.303L334 772.341Z" fill="#08ffc8b2" stroke-width=".33400199999999997"/><path d="M417.496 916.8 501 868.645V772.34l-83.504 48.156V916.8Z" fill="#08ffc87c" stroke-width=".33400199999999997"/><path d="m334 772.341 83.496-48.147L501 772.341l-83.504 48.156L334 772.341Z" fill="#08ffc83e" stroke-width=".33400199999999997"/></g><g fill-rule="evenodd"><path d="M501 772.341v96.304l83.496 48.155v-96.303L501 772.341Z" fill="#08ffc8dd" stroke-width=".33400199999999997"/><path d="M584.496 916.8 668 868.645V772.34l-83.504 48.156V916.8Z" fill="#08ffc89a" stroke-width=".33400199999999997"/><path d="m501 772.341 83.496-48.147L668 772.341l-83.504 48.156L501 772.341Z" fill="#08ffc84d" stroke-width=".33400199999999997"/></g><g fill="none"><path d="M668 772.341v96.304l83.496 48.155v-96.303L668 772.341ZM751.496 916.8 835 868.645V772.34l-83.504 48.156V916.8Z" stroke-width=".33400199999999997"/><path d="m668 772.341 83.496-48.147L835 772.341l-83.504 48.156L668 772.341Z" stroke-width=".33400199999999997"/></g><g fill-rule="evenodd"><path d="M835 772.341v96.304l83.496 48.155v-96.303L835 772.341Z" fill="#08ffc827" stroke-width=".33400199999999997"/><path d="M918.496 916.8 1002 868.645V772.34l-83.504 48.156V916.8Z" fill="#08ffc81b" stroke-width=".33400199999999997"/><path d="m835 772.341 83.496-48.147L1002 772.341l-83.504 48.156L835 772.341Z" fill="#08ffc80e" stroke-width=".33400199999999997"/></g><g fill-rule="evenodd"><path d="M1169 772.341v96.304l83.496 48.155v-96.303L1169 772.341Z" fill="#08ffc8f9" stroke-width=".33400199999999997"/><path d="M1252.496 916.8 1336 868.645V772.34l-83.504 48.156V916.8Z" fill="#08ffc8ae" stroke-width=".33400199999999997"/><path d="m1169 772.341 83.496-48.147L1336 772.341l-83.504 48.156L1169 772.341Z" fill="#08ffc857" stroke-width=".33400199999999997"/></g><g fill="none"><path d="M1503 772.341v96.304l83.496 48.155v-96.303L1503 772.341ZM1586.496 916.8 1670 868.645V772.34l-83.504 48.156V916.8Z" stroke-width=".33400199999999997"/><path d="m1503 772.341 83.496-48.147L1670 772.341l-83.504 48.156L1503 772.341Z" stroke-width=".33400199999999997"/></g><g fill-rule="evenodd"><path d="M83.5 917.075v96.303l83.496 48.156V965.23L83.5 917.075Z" fill="#08ffc88c" stroke-width=".33400199999999997"/><path d="m166.996 1061.534 83.504-48.156v-96.303l-83.504 48.155v96.304Z" fill="#08ffc862" stroke-width=".33400199999999997"/><path d="m83.5 917.075 83.496-48.148 83.504 48.148-83.504 48.155L83.5 917.075Z" fill="#08ffc831" stroke-width=".33400199999999997"/></g><g fill="none"><path d="M918.5 917.075v96.303l83.496 48.156V965.23L918.5 917.075ZM1001.996 1061.534l83.504-48.156v-96.303l-83.504 48.155v96.304Z" stroke-width=".33400199999999997"/><path d="m918.5 917.075 83.496-48.148 83.504 48.148-83.504 48.155-83.496-48.155Z" stroke-width=".33400199999999997"/></g><g fill="none"><path d="M1419.5 917.075v96.303l83.496 48.156V965.23l-83.496-48.155ZM1502.996 1061.534l83.504-48.156v-96.303l-83.504 48.155v96.304Z" stroke-width=".33400199999999997"/><path d="m1419.5 917.075 83.496-48.148 83.504 48.148-83.504 48.155-83.496-48.155Z" stroke-width=".33400199999999997"/></g><g fill="none"><path d="M1586.5 917.075v96.303l83.496 48.156V965.23l-83.496-48.155ZM1669.996 1061.534l83.504-48.156v-96.303l-83.504 48.155v96.304Z" stroke-width=".33400199999999997"/><path d="m1586.5 917.075 83.496-48.148 83.504 48.148-83.504 48.155-83.496-48.155Z" stroke-width=".33400199999999997"/></g><g fill="none"><path d="M501 1061.808v96.304l83.496 48.155v-96.303L501 1061.808ZM584.496 1206.267 668 1158.112v-96.304l-83.504 48.156v96.303Z" stroke-width=".33400199999999997"/><path d="m501 1061.808 83.496-48.147L668 1061.808l-83.504 48.156L501 1061.808Z" stroke-width=".33400199999999997"/></g><g fill-rule="evenodd"><path d="M668 1061.808v96.304l83.496 48.155v-96.303L668 1061.808Z" fill="#08ffc8f6" stroke-width=".33400199999999997"/><path d="M751.496 1206.267 835 1158.112v-96.304l-83.504 48.156v96.303Z" fill="#08ffc8ad" stroke-width=".33400199999999997"/><path d="m668 1061.808 83.496-48.147L835 1061.808l-83.504 48.156L668 1061.808Z" fill="#08ffc856" stroke-width=".33400199999999997"/></g><g fill-rule="evenodd"><path d="M1670 1061.808v96.304l83.496 48.155v-96.303L1670 1061.808Z" fill="#08ffc8f6" stroke-width=".33400199999999997"/><path d="m1753.496 1206.267 83.504-48.155v-96.304l-83.504 48.156v96.303Z" fill="#08ffc8ac" stroke-width=".33400199999999997"/><path d="m1670 1061.808 83.496-48.147 83.504 48.147-83.504 48.156-83.496-48.156Z" fill="#08ffc856" stroke-width=".33400199999999997"/></g><g fill="none"><path d="M1837 1061.808v96.304l83.496 48.155v-96.303L1837 1061.808ZM1920.496 1206.267l83.504-48.155v-96.304l-83.504 48.156v96.303Z" stroke-width=".33400199999999997"/><path d="m1837 1061.808 83.496-48.147 83.504 48.147-83.504 48.156-83.496-48.156Z" stroke-width=".33400199999999997"/></g><g fill-rule="evenodd"><path d="M250.5 1206.541v96.304L333.996 1351v-96.303l-83.496-48.156Z" fill="#08ffc855" stroke-width=".33400199999999997"/><path d="m333.996 1351 83.504-48.155v-96.304l-83.504 48.156V1351Z" fill="#08ffc83c" stroke-width=".33400199999999997"/><path d="m250.5 1206.541 83.496-48.147 83.504 48.147-83.504 48.156-83.496-48.156Z" fill="#08ffc81e" stroke-width=".33400199999999997"/></g><g fill-rule="evenodd"><path d="M417.5 1206.541v96.304L500.996 1351v-96.303l-83.496-48.156Z" fill="#08ffc88d" stroke-width=".33400199999999997"/><path d="m500.996 1351 83.504-48.155v-96.304l-83.504 48.156V1351Z" fill="#08ffc863" stroke-width=".33400199999999997"/><path d="m417.5 1206.541 83.496-48.147 83.504 48.147-83.504 48.156-83.496-48.156Z" fill="#08ffc831" stroke-width=".33400199999999997"/></g><g fill="none"><path d="M584.5 1206.541v96.304L667.996 1351v-96.303l-83.496-48.156ZM667.996 1351l83.504-48.155v-96.304l-83.504 48.156V1351Z" stroke-width=".33400199999999997"/><path d="m584.5 1206.541 83.496-48.147 83.504 48.147-83.504 48.156-83.496-48.156Z" stroke-width=".33400199999999997"/></g><g fill-rule="evenodd"><path d="M1419.5 1206.541v96.304l83.496 48.155v-96.303l-83.496-48.156Z" fill="#08ffc86a" stroke-width=".33400199999999997"/><path d="m1502.996 1351 83.504-48.155v-96.304l-83.504 48.156V1351Z" fill="#08ffc84a" stroke-width=".33400199999999997"/><path d="m1419.5 1206.541 83.496-48.147 83.504 48.147-83.504 48.156-83.496-48.156Z" fill="#08ffc825" stroke-width=".33400199999999997"/></g><g fill-rule="evenodd"><path d="M1586.5 1206.541v96.304l83.496 48.155v-96.303l-83.496-48.156Z" fill="#08ffc87a" stroke-width=".33400199999999997"/><path d="m1669.996 1351 83.504-48.155v-96.304l-83.504 48.156V1351Z" fill="#08ffc856" stroke-width=".33400199999999997"/><path d="m1586.5 1206.541 83.496-48.147 83.504 48.147-83.504 48.156-83.496-48.156Z" fill="#08ffc82b" stroke-width=".33400199999999997"/></g><g fill="none"><path d="M0 1351.275v96.303l83.496 48.156v-96.304L0 1351.275ZM83.496 1495.734 167 1447.578v-96.303l-83.504 48.155v96.304Z" stroke-width=".33400199999999997"/><path d="m0 1351.275 83.496-48.148L167 1351.275l-83.504 48.155L0 1351.275Z" stroke-width=".33400199999999997"/></g><g fill-rule="evenodd"><path d="M1169 1351.275v96.303l83.496 48.156v-96.304L1169 1351.275Z" fill="#08ffc8b9" stroke-width=".33400199999999997"/><path d="m1252.496 1495.734 83.504-48.156v-96.303l-83.504 48.155v96.304Z" fill="#08ffc881" stroke-width=".33400199999999997"/><path d="m1169 1351.275 83.496-48.148 83.504 48.148-83.504 48.155-83.496-48.155Z" fill="#08ffc841" stroke-width=".33400199999999997"/></g><g fill="none"><path d="M1336 1351.275v96.303l83.496 48.156v-96.304L1336 1351.275ZM1419.496 1495.734l83.504-48.156v-96.303l-83.504 48.155v96.304Z" stroke-width=".33400199999999997"/><path d="m1336 1351.275 83.496-48.148 83.504 48.148-83.504 48.155-83.496-48.155Z" stroke-width=".33400199999999997"/></g><g fill="none"><path d="M1670 1351.275v96.303l83.496 48.156v-96.304L1670 1351.275ZM1753.496 1495.734l83.504-48.156v-96.303l-83.504 48.155v96.304Z" stroke-width=".33400199999999997"/><path d="m1670 1351.275 83.496-48.148 83.504 48.148-83.504 48.155-83.496-48.155Z" stroke-width=".33400199999999997"/></g></g><defs><radialGradient id="a"><stop offset="0" stop-color="#fff"/><stop offset="1" stop-color="#fff" stop-opacity="0"/></radialGradient></defs></svg>